<mxfile host="app.diagrams.net" modified="2023-12-21T07:21:16.823Z" agent="Mozilla/5.0 (Windows NT 10.0; Win64; x64) AppleWebKit/537.36 (KHTML, like Gecko) Chrome/120.0.0.0 Safari/537.36" etag="aoUQKYTNyDaEb6kfq7Ld" version="22.1.11" type="device">
  <diagram name="Page-1" id="e3btm0OC4dimI9vTf5fZ">
    <mxGraphModel dx="1766" dy="743" grid="1" gridSize="10" guides="1" tooltips="1" connect="1" arrows="1" fold="1" page="0" pageScale="1" pageWidth="827" pageHeight="1169" math="0" shadow="0">
      <root>
        <mxCell id="0" />
        <mxCell id="1" parent="0" />
        <mxCell id="79uxCP8dQ2o5qbtsnjEf-32" value="" style="rounded=0;whiteSpace=wrap;html=1;fillColor=#f8cecc;strokeColor=#b85450;opacity=25;" vertex="1" parent="1">
          <mxGeometry x="-40" y="510" width="346.5" height="200" as="geometry" />
        </mxCell>
        <mxCell id="79uxCP8dQ2o5qbtsnjEf-20" value="" style="rounded=0;whiteSpace=wrap;html=1;fillColor=#f8cecc;strokeColor=#b85450;opacity=25;" vertex="1" parent="1">
          <mxGeometry x="320" y="510" width="180" height="70" as="geometry" />
        </mxCell>
        <mxCell id="79uxCP8dQ2o5qbtsnjEf-15" value="" style="rounded=0;whiteSpace=wrap;html=1;fillColor=#f8cecc;strokeColor=#b85450;opacity=25;" vertex="1" parent="1">
          <mxGeometry x="-40" y="50" width="910" height="448" as="geometry" />
        </mxCell>
        <mxCell id="79uxCP8dQ2o5qbtsnjEf-18" value="" style="rounded=0;whiteSpace=wrap;html=1;fillColor=#dae8fc;strokeColor=#6c8ebf;opacity=50;" vertex="1" parent="1">
          <mxGeometry x="540" y="130" width="316" height="140" as="geometry" />
        </mxCell>
        <mxCell id="79uxCP8dQ2o5qbtsnjEf-9" value="" style="rounded=0;whiteSpace=wrap;html=1;fillColor=#dae8fc;strokeColor=#6c8ebf;opacity=50;" vertex="1" parent="1">
          <mxGeometry x="-34" y="130" width="565" height="360" as="geometry" />
        </mxCell>
        <mxCell id="79uxCP8dQ2o5qbtsnjEf-10" value="" style="rounded=0;whiteSpace=wrap;html=1;fillColor=#ffe6cc;strokeColor=#d79b00;opacity=50;" vertex="1" parent="1">
          <mxGeometry x="-29" y="230" width="180" height="150" as="geometry" />
        </mxCell>
        <mxCell id="79uxCP8dQ2o5qbtsnjEf-8" value="" style="rounded=0;whiteSpace=wrap;html=1;fillColor=#ffe6cc;strokeColor=#d79b00;opacity=50;" vertex="1" parent="1">
          <mxGeometry x="161" y="230" width="365" height="250" as="geometry" />
        </mxCell>
        <mxCell id="QFbHyOYM3DbjXeHlkywJ-11" style="edgeStyle=orthogonalEdgeStyle;rounded=0;orthogonalLoop=1;jettySize=auto;html=1;" parent="1" source="QFbHyOYM3DbjXeHlkywJ-2" target="QFbHyOYM3DbjXeHlkywJ-5" edge="1">
          <mxGeometry relative="1" as="geometry">
            <Array as="points">
              <mxPoint x="61" y="120" />
              <mxPoint x="341" y="120" />
            </Array>
          </mxGeometry>
        </mxCell>
        <mxCell id="79uxCP8dQ2o5qbtsnjEf-6" style="edgeStyle=orthogonalEdgeStyle;rounded=0;orthogonalLoop=1;jettySize=auto;html=1;" edge="1" parent="1" source="QFbHyOYM3DbjXeHlkywJ-2" target="79uxCP8dQ2o5qbtsnjEf-1">
          <mxGeometry relative="1" as="geometry">
            <Array as="points">
              <mxPoint x="71" y="214" />
              <mxPoint x="196" y="214" />
            </Array>
          </mxGeometry>
        </mxCell>
        <mxCell id="QFbHyOYM3DbjXeHlkywJ-2" value="&lt;p style=&quot;margin:0px;margin-top:4px;text-align:center;&quot;&gt;&lt;b&gt;HÃ©ro { abstract }&lt;/b&gt;&lt;/p&gt;&lt;hr size=&quot;1&quot;&gt;&lt;p style=&quot;margin:0px;margin-left:4px;&quot;&gt;&lt;br&gt;&lt;/p&gt;" style="verticalAlign=top;align=left;overflow=fill;fontSize=12;fontFamily=Helvetica;html=1;whiteSpace=wrap;" parent="1" vertex="1">
          <mxGeometry x="-19" y="238" width="160" height="30" as="geometry" />
        </mxCell>
        <mxCell id="QFbHyOYM3DbjXeHlkywJ-10" style="edgeStyle=orthogonalEdgeStyle;rounded=0;orthogonalLoop=1;jettySize=auto;html=1;" parent="1" source="QFbHyOYM3DbjXeHlkywJ-3" target="QFbHyOYM3DbjXeHlkywJ-5" edge="1">
          <mxGeometry relative="1" as="geometry" />
        </mxCell>
        <mxCell id="79uxCP8dQ2o5qbtsnjEf-7" style="edgeStyle=orthogonalEdgeStyle;rounded=0;orthogonalLoop=1;jettySize=auto;html=1;" edge="1" parent="1" source="QFbHyOYM3DbjXeHlkywJ-3" target="79uxCP8dQ2o5qbtsnjEf-1">
          <mxGeometry relative="1" as="geometry">
            <Array as="points">
              <mxPoint x="331" y="214" />
              <mxPoint x="196" y="214" />
            </Array>
          </mxGeometry>
        </mxCell>
        <mxCell id="QFbHyOYM3DbjXeHlkywJ-3" value="&lt;p style=&quot;margin:0px;margin-top:4px;text-align:center;&quot;&gt;&lt;b&gt;Mob { abstract }&lt;/b&gt;&lt;/p&gt;&lt;hr size=&quot;1&quot;&gt;&lt;p style=&quot;margin:0px;margin-left:4px;&quot;&gt;&lt;br&gt;&lt;/p&gt;" style="verticalAlign=top;align=left;overflow=fill;fontSize=12;fontFamily=Helvetica;html=1;whiteSpace=wrap;" parent="1" vertex="1">
          <mxGeometry x="261" y="238" width="160" height="30" as="geometry" />
        </mxCell>
        <mxCell id="QFbHyOYM3DbjXeHlkywJ-8" style="edgeStyle=orthogonalEdgeStyle;rounded=0;orthogonalLoop=1;jettySize=auto;html=1;" parent="1" source="QFbHyOYM3DbjXeHlkywJ-4" target="QFbHyOYM3DbjXeHlkywJ-3" edge="1">
          <mxGeometry relative="1" as="geometry" />
        </mxCell>
        <mxCell id="QFbHyOYM3DbjXeHlkywJ-4" value="&lt;p style=&quot;margin:0px;margin-top:4px;text-align:center;&quot;&gt;&lt;b&gt;Sbire { abstract }&lt;/b&gt;&lt;/p&gt;&lt;hr size=&quot;1&quot;&gt;&lt;p style=&quot;margin:0px;margin-left:4px;&quot;&gt;&lt;br&gt;&lt;/p&gt;" style="verticalAlign=top;align=left;overflow=fill;fontSize=12;fontFamily=Helvetica;html=1;whiteSpace=wrap;" parent="1" vertex="1">
          <mxGeometry x="171" y="338" width="160" height="30" as="geometry" />
        </mxCell>
        <mxCell id="QFbHyOYM3DbjXeHlkywJ-5" value="&lt;p style=&quot;margin:0px;margin-top:4px;text-align:center;&quot;&gt;&lt;b&gt;Entity { abstract }&lt;/b&gt;&lt;/p&gt;&lt;hr size=&quot;1&quot;&gt;&lt;p style=&quot;margin:0px;margin-left:4px;&quot;&gt;&lt;br&gt;&lt;/p&gt;" style="verticalAlign=top;align=left;overflow=fill;fontSize=12;fontFamily=Helvetica;html=1;whiteSpace=wrap;" parent="1" vertex="1">
          <mxGeometry x="261" y="60" width="160" height="30" as="geometry" />
        </mxCell>
        <mxCell id="QFbHyOYM3DbjXeHlkywJ-9" style="edgeStyle=orthogonalEdgeStyle;rounded=0;orthogonalLoop=1;jettySize=auto;html=1;" parent="1" source="QFbHyOYM3DbjXeHlkywJ-6" target="QFbHyOYM3DbjXeHlkywJ-3" edge="1">
          <mxGeometry relative="1" as="geometry" />
        </mxCell>
        <mxCell id="QFbHyOYM3DbjXeHlkywJ-6" value="&lt;p style=&quot;margin:0px;margin-top:4px;text-align:center;&quot;&gt;&lt;b&gt;Boss { abstract }&lt;/b&gt;&lt;/p&gt;&lt;hr size=&quot;1&quot;&gt;&lt;p style=&quot;margin:0px;margin-left:4px;&quot;&gt;&lt;br&gt;&lt;/p&gt;" style="verticalAlign=top;align=left;overflow=fill;fontSize=12;fontFamily=Helvetica;html=1;whiteSpace=wrap;" parent="1" vertex="1">
          <mxGeometry x="351" y="338" width="160" height="30" as="geometry" />
        </mxCell>
        <mxCell id="QFbHyOYM3DbjXeHlkywJ-13" style="edgeStyle=orthogonalEdgeStyle;rounded=0;orthogonalLoop=1;jettySize=auto;html=1;" parent="1" source="QFbHyOYM3DbjXeHlkywJ-12" target="QFbHyOYM3DbjXeHlkywJ-5" edge="1">
          <mxGeometry relative="1" as="geometry">
            <Array as="points">
              <mxPoint x="631" y="120" />
              <mxPoint x="341" y="120" />
            </Array>
          </mxGeometry>
        </mxCell>
        <mxCell id="79uxCP8dQ2o5qbtsnjEf-12" style="edgeStyle=orthogonalEdgeStyle;rounded=0;orthogonalLoop=1;jettySize=auto;html=1;" edge="1" parent="1" source="QFbHyOYM3DbjXeHlkywJ-12" target="79uxCP8dQ2o5qbtsnjEf-11">
          <mxGeometry relative="1" as="geometry">
            <Array as="points">
              <mxPoint x="641" y="210" />
              <mxPoint x="756" y="210" />
            </Array>
          </mxGeometry>
        </mxCell>
        <mxCell id="QFbHyOYM3DbjXeHlkywJ-12" value="&lt;p style=&quot;margin:0px;margin-top:4px;text-align:center;&quot;&gt;&lt;b&gt;NPC&lt;/b&gt;&lt;/p&gt;&lt;hr size=&quot;1&quot;&gt;&lt;p style=&quot;margin:0px;margin-left:4px;&quot;&gt;&lt;br&gt;&lt;/p&gt;" style="verticalAlign=top;align=left;overflow=fill;fontSize=12;fontFamily=Helvetica;html=1;whiteSpace=wrap;" parent="1" vertex="1">
          <mxGeometry x="551" y="230" width="160" height="30" as="geometry" />
        </mxCell>
        <mxCell id="QFbHyOYM3DbjXeHlkywJ-15" style="edgeStyle=orthogonalEdgeStyle;rounded=0;orthogonalLoop=1;jettySize=auto;html=1;" parent="1" source="QFbHyOYM3DbjXeHlkywJ-14" target="QFbHyOYM3DbjXeHlkywJ-2" edge="1">
          <mxGeometry relative="1" as="geometry" />
        </mxCell>
        <mxCell id="QFbHyOYM3DbjXeHlkywJ-14" value="&lt;p style=&quot;margin:0px;margin-top:4px;text-align:center;&quot;&gt;&lt;b&gt;...&lt;/b&gt;&lt;/p&gt;&lt;hr size=&quot;1&quot;&gt;&lt;p style=&quot;margin:0px;margin-left:4px;&quot;&gt;&lt;br&gt;&lt;/p&gt;" style="verticalAlign=top;align=left;overflow=fill;fontSize=12;fontFamily=Helvetica;html=1;whiteSpace=wrap;" parent="1" vertex="1">
          <mxGeometry x="36" y="338" width="50" height="30" as="geometry" />
        </mxCell>
        <mxCell id="QFbHyOYM3DbjXeHlkywJ-17" style="edgeStyle=orthogonalEdgeStyle;rounded=0;orthogonalLoop=1;jettySize=auto;html=1;" parent="1" source="QFbHyOYM3DbjXeHlkywJ-16" target="QFbHyOYM3DbjXeHlkywJ-4" edge="1">
          <mxGeometry relative="1" as="geometry" />
        </mxCell>
        <mxCell id="QFbHyOYM3DbjXeHlkywJ-16" value="&lt;p style=&quot;margin:0px;margin-top:4px;text-align:center;&quot;&gt;&lt;b&gt;...&lt;/b&gt;&lt;/p&gt;&lt;hr size=&quot;1&quot;&gt;&lt;p style=&quot;margin:0px;margin-left:4px;&quot;&gt;&lt;br&gt;&lt;/p&gt;" style="verticalAlign=top;align=left;overflow=fill;fontSize=12;fontFamily=Helvetica;html=1;whiteSpace=wrap;" parent="1" vertex="1">
          <mxGeometry x="226" y="438" width="50" height="30" as="geometry" />
        </mxCell>
        <mxCell id="QFbHyOYM3DbjXeHlkywJ-19" style="edgeStyle=orthogonalEdgeStyle;rounded=0;orthogonalLoop=1;jettySize=auto;html=1;" parent="1" source="QFbHyOYM3DbjXeHlkywJ-18" target="QFbHyOYM3DbjXeHlkywJ-6" edge="1">
          <mxGeometry relative="1" as="geometry" />
        </mxCell>
        <mxCell id="QFbHyOYM3DbjXeHlkywJ-18" value="&lt;p style=&quot;margin:0px;margin-top:4px;text-align:center;&quot;&gt;&lt;b&gt;...&lt;/b&gt;&lt;/p&gt;&lt;hr size=&quot;1&quot;&gt;&lt;p style=&quot;margin:0px;margin-left:4px;&quot;&gt;&lt;br&gt;&lt;/p&gt;" style="verticalAlign=top;align=left;overflow=fill;fontSize=12;fontFamily=Helvetica;html=1;whiteSpace=wrap;" parent="1" vertex="1">
          <mxGeometry x="406" y="438" width="50" height="30" as="geometry" />
        </mxCell>
        <mxCell id="79uxCP8dQ2o5qbtsnjEf-1" value="&lt;p style=&quot;margin:0px;margin-top:4px;text-align:center;&quot;&gt;&lt;i&gt;&amp;lt;&amp;lt;Interface&amp;gt;&amp;gt;&lt;/i&gt;&lt;br&gt;&lt;b&gt;IDamageable&lt;/b&gt;&lt;/p&gt;&lt;hr size=&quot;1&quot;&gt;&lt;p style=&quot;margin:0px;margin-left:4px;&quot;&gt;&lt;br&gt;&lt;/p&gt;" style="verticalAlign=top;align=left;overflow=fill;fontSize=12;fontFamily=Helvetica;html=1;whiteSpace=wrap;" vertex="1" parent="1">
          <mxGeometry x="101" y="140" width="190" height="50" as="geometry" />
        </mxCell>
        <mxCell id="79uxCP8dQ2o5qbtsnjEf-11" value="&lt;p style=&quot;margin:0px;margin-top:4px;text-align:center;&quot;&gt;&lt;i&gt;&amp;lt;&amp;lt;Interface&amp;gt;&amp;gt;&lt;/i&gt;&lt;br&gt;&lt;b&gt;IInteractable&lt;/b&gt;&lt;/p&gt;&lt;hr size=&quot;1&quot;&gt;&lt;p style=&quot;margin:0px;margin-left:4px;&quot;&gt;&lt;br&gt;&lt;/p&gt;" style="verticalAlign=top;align=left;overflow=fill;fontSize=12;fontFamily=Helvetica;html=1;whiteSpace=wrap;" vertex="1" parent="1">
          <mxGeometry x="661" y="140" width="190" height="50" as="geometry" />
        </mxCell>
        <mxCell id="79uxCP8dQ2o5qbtsnjEf-16" value="Entity class" style="text;html=1;strokeColor=none;fillColor=none;align=right;verticalAlign=middle;whiteSpace=wrap;rounded=0;spacingRight=8;" vertex="1" parent="1">
          <mxGeometry x="680" y="468" width="190" height="30" as="geometry" />
        </mxCell>
        <mxCell id="79uxCP8dQ2o5qbtsnjEf-19" value="&lt;p style=&quot;margin:0px;margin-top:4px;text-align:center;&quot;&gt;&lt;b&gt;Room&lt;/b&gt;&lt;/p&gt;&lt;hr size=&quot;1&quot;&gt;&lt;p style=&quot;margin:0px;margin-left:4px;&quot;&gt;&lt;br&gt;&lt;/p&gt;" style="verticalAlign=top;align=left;overflow=fill;fontSize=12;fontFamily=Helvetica;html=1;whiteSpace=wrap;" vertex="1" parent="1">
          <mxGeometry x="331" y="520" width="160" height="30" as="geometry" />
        </mxCell>
        <mxCell id="79uxCP8dQ2o5qbtsnjEf-21" value="Room class" style="text;html=1;strokeColor=none;fillColor=none;align=right;verticalAlign=middle;whiteSpace=wrap;rounded=0;spacingRight=8;" vertex="1" parent="1">
          <mxGeometry x="325" y="550" width="175" height="30" as="geometry" />
        </mxCell>
        <mxCell id="79uxCP8dQ2o5qbtsnjEf-22" value="&lt;p style=&quot;margin:0px;margin-top:4px;text-align:center;&quot;&gt;&lt;b&gt;Item : ScriptableObject { abstract }&lt;/b&gt;&lt;/p&gt;&lt;hr size=&quot;1&quot;&gt;&lt;p style=&quot;margin:0px;margin-left:4px;&quot;&gt;&lt;br&gt;&lt;/p&gt;" style="verticalAlign=top;align=left;overflow=fill;fontSize=12;fontFamily=Helvetica;html=1;whiteSpace=wrap;" vertex="1" parent="1">
          <mxGeometry x="28.5" y="520" width="208" height="30" as="geometry" />
        </mxCell>
        <mxCell id="79uxCP8dQ2o5qbtsnjEf-26" style="edgeStyle=orthogonalEdgeStyle;rounded=0;orthogonalLoop=1;jettySize=auto;html=1;" edge="1" parent="1" source="79uxCP8dQ2o5qbtsnjEf-23" target="79uxCP8dQ2o5qbtsnjEf-22">
          <mxGeometry relative="1" as="geometry" />
        </mxCell>
        <mxCell id="79uxCP8dQ2o5qbtsnjEf-23" value="&lt;p style=&quot;margin:0px;margin-top:4px;text-align:center;&quot;&gt;&lt;b&gt;Actif { abstract }&lt;/b&gt;&lt;/p&gt;&lt;hr size=&quot;1&quot;&gt;&lt;p style=&quot;margin:0px;margin-left:4px;&quot;&gt;&lt;br&gt;&lt;/p&gt;" style="verticalAlign=top;align=left;overflow=fill;fontSize=12;fontFamily=Helvetica;html=1;whiteSpace=wrap;" vertex="1" parent="1">
          <mxGeometry x="-35" y="590" width="160" height="30" as="geometry" />
        </mxCell>
        <mxCell id="79uxCP8dQ2o5qbtsnjEf-27" style="edgeStyle=orthogonalEdgeStyle;rounded=0;orthogonalLoop=1;jettySize=auto;html=1;" edge="1" parent="1" source="79uxCP8dQ2o5qbtsnjEf-24" target="79uxCP8dQ2o5qbtsnjEf-23">
          <mxGeometry relative="1" as="geometry" />
        </mxCell>
        <mxCell id="79uxCP8dQ2o5qbtsnjEf-24" value="&lt;p style=&quot;margin:0px;margin-top:4px;text-align:center;&quot;&gt;&lt;b&gt;...&lt;/b&gt;&lt;/p&gt;&lt;hr size=&quot;1&quot;&gt;&lt;p style=&quot;margin:0px;margin-left:4px;&quot;&gt;&lt;br&gt;&lt;/p&gt;" style="verticalAlign=top;align=left;overflow=fill;fontSize=12;fontFamily=Helvetica;html=1;whiteSpace=wrap;" vertex="1" parent="1">
          <mxGeometry x="20" y="650" width="50" height="30" as="geometry" />
        </mxCell>
        <mxCell id="79uxCP8dQ2o5qbtsnjEf-31" style="edgeStyle=orthogonalEdgeStyle;rounded=0;orthogonalLoop=1;jettySize=auto;html=1;" edge="1" parent="1" source="79uxCP8dQ2o5qbtsnjEf-28" target="79uxCP8dQ2o5qbtsnjEf-22">
          <mxGeometry relative="1" as="geometry" />
        </mxCell>
        <mxCell id="79uxCP8dQ2o5qbtsnjEf-28" value="&lt;p style=&quot;margin:0px;margin-top:4px;text-align:center;&quot;&gt;&lt;b&gt;Passif { abstract }&lt;/b&gt;&lt;/p&gt;&lt;hr size=&quot;1&quot;&gt;&lt;p style=&quot;margin:0px;margin-left:4px;&quot;&gt;&lt;br&gt;&lt;/p&gt;" style="verticalAlign=top;align=left;overflow=fill;fontSize=12;fontFamily=Helvetica;html=1;whiteSpace=wrap;" vertex="1" parent="1">
          <mxGeometry x="140" y="590" width="160" height="30" as="geometry" />
        </mxCell>
        <mxCell id="79uxCP8dQ2o5qbtsnjEf-29" style="edgeStyle=orthogonalEdgeStyle;rounded=0;orthogonalLoop=1;jettySize=auto;html=1;" edge="1" parent="1" source="79uxCP8dQ2o5qbtsnjEf-30" target="79uxCP8dQ2o5qbtsnjEf-28">
          <mxGeometry relative="1" as="geometry" />
        </mxCell>
        <mxCell id="79uxCP8dQ2o5qbtsnjEf-30" value="&lt;p style=&quot;margin:0px;margin-top:4px;text-align:center;&quot;&gt;&lt;b&gt;...&lt;/b&gt;&lt;/p&gt;&lt;hr size=&quot;1&quot;&gt;&lt;p style=&quot;margin:0px;margin-left:4px;&quot;&gt;&lt;br&gt;&lt;/p&gt;" style="verticalAlign=top;align=left;overflow=fill;fontSize=12;fontFamily=Helvetica;html=1;whiteSpace=wrap;" vertex="1" parent="1">
          <mxGeometry x="195" y="650" width="50" height="30" as="geometry" />
        </mxCell>
        <mxCell id="79uxCP8dQ2o5qbtsnjEf-33" value="Item class" style="text;html=1;strokeColor=none;fillColor=none;align=right;verticalAlign=middle;whiteSpace=wrap;rounded=0;spacingRight=8;" vertex="1" parent="1">
          <mxGeometry x="121.5" y="680" width="185" height="30" as="geometry" />
        </mxCell>
      </root>
    </mxGraphModel>
  </diagram>
</mxfile>
